<svg width="20" height="20" viewBox="0 0 20 20" fill="none" xmlns="http://www.w3.org/2000/svg">
<path d="M1.25 5.8337C1.25071 5.46757 1.25572 5.19635 1.28863 4.95339C1.54697 3.04661 3.04661 1.54697 4.95339 1.28863C5.19635 1.25572 5.46757 1.25071 5.8337 1.25H6.11113V2.99991C5.54059 2.99991 5.34251 3.00191 5.18833 3.0228C4.0616 3.17545 3.17545 4.0616 3.0228 5.18833C3.00191 5.34251 2.99991 5.54059 2.99991 6.11113H1.25V5.8337Z" fill="currentColor"/>
<path d="M1.25 12.4306V7.56947H2.99991V12.4306H1.25Z" fill="currentColor"/>
<path d="M1.25 14.1663V13.8889H2.99991C2.99991 14.4593 3.00191 14.6573 3.02278 14.8114C3.1754 15.9383 4.06162 16.8245 5.18844 16.9771C5.34257 16.998 5.54064 17 6.11113 17V18.75L6.04241 18.75C5.56683 18.7501 5.24045 18.7501 4.95357 18.7113C3.04665 18.453 1.54688 16.9532 1.28861 15.0463C1.25571 14.8034 1.25071 14.5323 1.25 14.1663Z" fill="currentColor"/>
<path d="M13.8889 1.25H14.1663C14.5323 1.25071 14.8034 1.25571 15.0463 1.28861C16.9532 1.54688 18.453 3.04665 18.7113 4.95357C18.7501 5.24045 18.7501 5.5668 18.75 6.04238L18.75 6.11113H17C17 5.54064 16.998 5.34257 16.9771 5.18844C16.8245 4.06162 15.9383 3.1754 14.8114 3.02278C14.6573 3.00191 14.4593 2.99991 13.8889 2.99991V1.25Z" fill="currentColor"/>
<path d="M7.56947 1.25H12.4306V2.99991H7.56947V1.25Z" fill="currentColor"/>
<path d="M17 7.56947V12.4306H18.75V7.56947H17Z" fill="currentColor"/>
<path d="M17 13.8889C17 14.4593 16.998 14.6573 16.9771 14.8114C16.8245 15.9383 15.9383 16.8245 14.8114 16.9771C14.6573 16.998 14.4593 17 13.8889 17V18.75L13.9577 18.75C14.4331 18.7501 14.7594 18.7501 15.0463 18.7113C16.9532 18.453 18.453 16.9532 18.7113 15.0463C18.7501 14.7594 18.7501 14.4332 18.75 13.9577L18.75 13.8889H17Z" fill="currentColor"/>
<path d="M12.4306 17H7.56947V18.75H12.4306V17Z" fill="currentColor"/>
</svg>
