<svg aria-hidden="true" width="17" height="16" viewBox="0 0 17 16" fill="none" xmlns="http://www.w3.org/2000/svg">
<path d="M1.5 4.66696C1.50057 4.37406 1.50457 4.15708 1.53091 3.96271C1.73757 2.43729 2.93729 1.23757 4.46271 1.03091C4.65708 1.00457 4.87406 1.00057 5.16696 1H5.38891V2.39993C4.93247 2.39993 4.77401 2.40153 4.65067 2.41824C3.74928 2.54036 3.04036 3.24928 2.91824 4.15067C2.90153 4.27401 2.89993 4.43247 2.89993 4.88891H1.5V4.66696Z" fill="currentColor"/>
<path d="M1.5 9.94448V6.05558H2.89993V9.94448H1.5Z" fill="currentColor"/>
<path d="M1.5 11.3331V11.1112H2.89993C2.89993 11.5674 2.90153 11.7259 2.91823 11.8492C3.04032 12.7506 3.7493 13.4596 4.65076 13.5817C4.77405 13.5984 4.93251 13.6 5.38891 13.6V15L5.33393 15C4.95346 15.0001 4.69236 15.0001 4.46286 14.969C2.93732 14.7624 1.7375 13.5626 1.53089 12.0371C1.50457 11.8428 1.50057 11.6259 1.5 11.3331Z" fill="currentColor"/>
<path d="M11.6112 1H11.8331C12.1259 1.00057 12.3428 1.00457 12.5371 1.03089C14.0626 1.2375 15.2624 2.43732 15.469 3.96286C15.5001 4.19236 15.5001 4.45344 15.5 4.8339L15.5 4.88891H14.1C14.1 4.43251 14.0984 4.27405 14.0817 4.15076C13.9596 3.2493 13.2506 2.54032 12.3492 2.41823C12.2259 2.40153 12.0674 2.39993 11.6112 2.39993V1Z" fill="currentColor"/>
<path d="M6.55558 1H10.4445V2.39993H6.55558V1Z" fill="currentColor"/>
<path d="M14.1 6.05558V9.94448H15.5V6.05558H14.1Z" fill="currentColor"/>
<path d="M14.1 11.1112C14.1 11.5674 14.0984 11.7259 14.0817 11.8492C13.9596 12.7506 13.2506 13.4596 12.3492 13.5817C12.2259 13.5984 12.0674 13.6 11.6112 13.6V15L11.6661 15C12.0465 15.0001 12.3076 15.0001 12.5371 14.969C14.0626 14.7624 15.2624 13.5626 15.469 12.0371C15.5001 11.8076 15.5001 11.5465 15.5 11.1662L15.5 11.1112H14.1Z" fill="currentColor"/>
<path d="M10.4445 13.6H6.55558V15H10.4445V13.6Z" fill="currentColor"/>
</svg>
