<svg width="28" height="28" viewBox="0 0 28 28" fill="none" xmlns="http://www.w3.org/2000/svg">
<path fill-rule="evenodd" clip-rule="evenodd" d="M8.83067 3.00005C8.89174 3.00008 8.9537 3.00011 9.0166 3.00011V4.81661C7.46958 4.81661 6.93781 4.83052 6.53956 4.97611C5.81356 5.24152 5.24152 5.81355 4.97612 6.53955C4.83053 6.9378 4.81661 7.46957 4.81661 9.01659H3.00012C3.00012 8.9537 3.00009 8.89173 3.00006 8.83066C2.99947 7.54377 2.99906 6.65715 3.27005 5.91586C3.7192 4.68724 4.68725 3.71919 5.91587 3.27004C6.65715 2.99905 7.54377 2.99946 8.83067 3.00005ZM21.4603 4.97606C21.0621 4.83052 20.5304 4.81661 18.9837 4.81661V3.00011C19.0465 3.00011 19.1085 3.00008 19.1696 3.00005C20.4563 2.99946 21.3427 2.99905 22.0839 3.26996C23.3127 3.7191 24.2809 4.68729 24.73 5.91609C25.001 6.65727 25.0005 7.54384 25 8.83068C24.9999 8.89174 24.9999 8.9537 24.9999 9.01659H23.1834C23.1834 7.46964 23.1695 6.93787 23.0239 6.53968C22.7585 5.81357 22.1864 5.24146 21.4603 4.97606ZM17.1148 4.81661H10.8854V3.00011H17.1148V4.81661ZM4.81661 10.8854V17.1148H3.00012V10.8854H4.81661ZM23.1834 17.1148V10.8854H24.9999V17.1148H23.1834ZM3.00006 19.1695C3.00009 19.1085 3.00012 19.0465 3.00012 18.9836H4.81661C4.81661 20.5304 4.83053 21.0621 4.97607 21.4603C5.24147 22.1864 5.81358 22.7585 6.53969 23.0239C6.93788 23.1695 7.46965 23.1834 9.0166 23.1834V24.9999C8.95371 24.9999 8.89175 24.9999 8.83069 24.9999C7.54385 25.0005 6.65728 25.0009 5.91609 24.73C4.68729 24.2809 3.71911 23.3127 3.26997 22.0839C2.99906 21.3427 2.99947 20.4562 3.00006 19.1695ZM23.0239 21.4603C23.1695 21.0621 23.1834 20.5304 23.1834 18.9836H24.9999C24.9999 19.0465 24.9999 19.1085 25 19.1695C25.0005 20.4562 25.001 21.3427 24.73 22.0839C24.2809 23.3127 23.3127 24.2809 22.0839 24.73C21.3427 25.0009 20.4562 25.0005 19.1695 24.9999C19.1085 24.9999 19.0465 24.9999 18.9837 24.9999V23.1834C20.5304 23.1834 21.0621 23.1695 21.4603 23.0239C22.1864 22.7585 22.7585 22.1864 23.0239 21.4603ZM10.8854 23.1834H17.1148V24.9999H10.8854V23.1834Z" fill="currentColor"/>
</svg>
